# xmcd CD database file
#
# Track frame offsets:
#	150
#	22410
#	44490
#	62895
#	88415
#	108777
#	128552
#	146770
#	166947
#	190585
#	208627
#	230437
#	251480
#
# Disc length: 3679 seconds
#
# Revision: 1
# Processed by: cddbd v1.5.2PL0 Copyright (c) Steve Scherf et al.
# Submitted via: CDex 1.51
#
DISCID=b90e5d0d
DTITLE=Babyface - The Day
DYEAR=2001
DGENRE=R&B
TTITLE0=Every Time I Close My Eyes
TTITLE1=Talk To Me
TTITLE2=I Said I Love You
TTITLE3=When Your Body Gets Weak
TTITLE4=Simple Days
TTITLE5=All Day Thinkin
TTITLE6=Seven Seas
TTITLE7=The Day (That You Gave A Son)
TTITLE8=How Come, How Long
TTITLE9=This Is For The Lover In You
TTITLE10=Every Time I Close My Eyes (Timbaland Remix)
TTITLE11=Every Tmie I Feel The Groove (Urban Soul Basement Mix)
TTITLE12=This Is For The Lover In You (Honey Lookin' Laces Extended Remix)
EXTD=YEAR: 2001
EXTT0=
EXTT1=
EXTT2=
EXTT3=
EXTT4=
EXTT5=
EXTT6=
EXTT7=
EXTT8=
EXTT9=
EXTT10=
EXTT11=
EXTT12=
PLAYORDER=
